<?xml version="1.0" standalone="no"?><!DOCTYPE svg PUBLIC "-//W3C//DTD SVG 1.1//EN" "http://www.w3.org/Graphics/SVG/1.1/DTD/svg11.dtd"><svg class="icon" height="512" viewBox="0 0 1024 1024" version="1.1" xmlns="http://www.w3.org/2000/svg"><path d="M446.184727 676.119273a46.545455 46.545455 0 0 0 65.815273 65.815272l208.802909-213.457454a23.272727 23.272727 0 0 0 0-32.954182L510.976 283.182545a46.545455 46.545455 0 0 0-65.815273 65.815273L558.545455 465.454545H139.636364a46.545455 46.545455 0 0 0 0 93.09091H558.545455zM837.818182 93.090909H418.909091a46.545455 46.545455 0 0 0 0 93.090909h372.363636a46.545455 46.545455 0 0 1 46.545455 46.545455v558.545454a46.545455 46.545455 0 0 1-46.545455 46.545455h-372.363636a46.545455 46.545455 0 0 0 0 93.090909H837.818182a93.090909 93.090909 0 0 0 93.090909-93.090909V186.181818a93.090909 93.090909 0 0 0-93.090909-93.090909z" /></svg>